<svg xmlns="http://www.w3.org/2000/svg" viewBox="0 0 800 800" stroke="#64ffda">
	<defs>
	</defs>
	<g style="pointer-events:all">
		<path stroke-miterlimit="4" fill="none" d="M539.40314,481.37945 L399.00762,553.28511 L257.60445,482.90571 L256.59687,340.62063 L396.99243,268.71488999999997 L538.39553,339.09431 L539.40313,481.37945 L539.40314,481.37945 z" id="svg_11" stroke-width="20">
		</path>
		<path d="M333.66644,304.108 L333.66644,519.85952 " id="svg_1" fill="none" stroke-width="15">
		</path>
		<path d="M307.38627821181615,502.6142987860966 L307.38627821181615,405.41307878609655 L359.5705325957755,405.41307878609655 L359.5705325957755,500.9888487860966 " id="svg_2" fill="none" stroke-width="15">
		</path>
		<path d="M306.1774581673613,332.77677015188215 L306.1774581673613,365.9357101518822 L360.77952813119583,365.9357101518822 L360.77952813119583,333.1018601518822 " id="svg_3" fill="none" stroke-width="15">
		</path>
		<path d="M401.9539846032723,309.80648604248046 L475.2203765600189,309.80648604248046 " id="svg_4" fill="none" stroke-width="15">
		</path>
		<path d="M379.5543392255006,345.7204544039917 L496.0977027319441,345.7204544039917 " id="svg_5" fill="none" stroke-width="15">
		</path>
		<path d="M398.87656824447635,349.6310717555237 L398.87656824447635,412.04791175552367 L431.3853382444763,412.04791175552367 " id="svg_6" fill="none" stroke-width="15">
		</path>
		<path d="M433.47791735153197,364.03601961313245 L433.47791735153197,444.3326796131325 L385.69002735153197,444.3326796131325 " id="svg_7" fill="none" stroke-width="15">
		</path>
		<path d="M460.45063,397.61156 L460.45063,475.6326 L413.31291,475.6326 " id="svg_8" fill="none" stroke-width="15">
		</path>
		<path d="M466.27079604248047,451.5351484525299 L485.12587604248046,451.5351484525299 L485.12587604248046,512.42823845253 " id="svg_9" fill="none" stroke-width="15">
		</path>
	</g>
</svg>
