<svg viewBox="0 0 1024 1024" version="1.1" xmlns="http://www.w3.org/2000/svg" >
	<path d="M1024 511.991606A512 512 0 1 1 511.983212 0a511.991606 511.991606 0 0 1 512 511.991606z" fill="#FFDB7A" p-id="8768">
	</path>
	<path d="M194.995655 657.747291a12.087548 12.087548 0 0 1-5.69122-1.427002 164.944668 164.944668 0 0 1 78.006656-310.24707 12.045578 12.045578 0 1 1 0 24.091155 140.836724 140.836724 0 0 0-66.599033 264.918764 12.053972 12.053972 0 0 1-5.724797 22.664153z" fill="#475059" p-id="8769">
	</path>
	<path d="M202.693073 609.13688l37.916288 61.327519-72.063611 2.157291 34.147323-63.48481zM828.99595 657.747291a12.053972 12.053972 0 0 1-5.724797-22.664153 140.836724 140.836724 0 0 0-66.590638-264.918764 12.045578 12.045578 0 1 1 0-24.091155 164.944668 164.944668 0 0 1 78.006656 310.24707 12.121125 12.121125 0 0 1-5.691221 1.427002z" fill="#475059" p-id="8770">
	</path>
	<path d="M855.261185 672.269137l-72.063611-2.157292 37.8995-61.327518 34.164111 63.48481zM678.346487 665.856021h-24.099549V370.164374H377.769457v295.691647h-24.09955V346.073219h324.67658v319.782802z" fill="#475059" p-id="8771">
	</path>
	<path d="M267.311091 259.706009h196.808788v196.808787H267.311091z" fill="#FFFFFF" p-id="8772">
	</path>
	<path d="M304.849643 297.252955h121.723289v121.723289H304.849643z" fill="#E25D34" p-id="8773">
	</path>
	<path d="M254.1407 665.864415l111.574785-111.583179L477.29027 665.856021 365.732273 777.430806zM554.726125 358.118797L666.30091 246.535618 777.884089 358.127191 666.292516 469.693581z" fill="#ADEBF6" p-id="8774">
	</path>
	<path d="M567.888122 567.460021H764.705304v196.808788H567.888122z" fill="#FFFFFF" p-id="8775">
	</path>
	<path d="M666.30091 665.856021m-60.832265 0a60.832265 60.832265 0 1 0 121.66453 0 60.832265 60.832265 0 1 0-121.66453 0Z" fill="#FF926E" p-id="8776">
	</path>
</svg>
