<svg viewBox="0 0 1024 1024"  xmlns="http://www.w3.org/2000/svg">
	<path d="M194.9 774.3H829c53.9 0 97.9-44.1 97.9-97.9V347.7c0-53.9-44.1-97.9-97.9-97.9H194.9c-53.9 0-97.9 44.1-97.9 97.9v328.7c0 53.8 44.1 97.9 97.9 97.9z" fill="#24222D" p-id="7134">
	</path>
	<path d="M193.5 774.3h634.1c5.5 0 11-0.4 16.3-1.1-16.4-51-63-87.8-136.8-87.8H340.6c-73.9 0-137.2 36.9-160.5 88.1 4.4 0.5 8.9 0.8 13.4 0.8zM194.9 622.7H829c26.1 0 47.6-21.5 47.6-47.6V347.7c0-26.1-21.5-47.6-47.6-47.6H194.9c-26.1 0-47.6 21.5-47.6 47.6v227.5c0.1 26 21.6 47.5 47.6 47.5z" fill="#FF6666" p-id="7135">
	</path>
	<path d="M340.6 416.6h342.8c38.9 0 70.7 31.8 70.7 70.7 0 38.9-31.8 70.6-70.7 70.6H340.6c-38.9 0-70.6-31.8-70.6-70.6 0-38.9 31.8-70.7 70.6-70.7z" fill="#24222D" p-id="7136">
	</path>
	<path d="M683.4 438.4c27 0 48.8 21.9 48.8 48.8 0 27-21.9 48.8-48.8 48.8-27 0-48.8-21.9-48.8-48.8 0-27 21.8-48.8 48.8-48.8zM340.6 438.4c27 0 48.8 21.9 48.8 48.8 0 27-21.9 48.8-48.8 48.8-27 0-48.8-21.9-48.8-48.8 0-27 21.9-48.8 48.8-48.8zM189.3 324.4c9.6 0 17.4 7.8 17.4 17.4 0 9.6-7.8 17.4-17.4 17.4-9.6 0-17.4-7.8-17.4-17.4 0-9.6 7.8-17.4 17.4-17.4zM834.7 323.3c9.6 0 17.4 7.8 17.4 17.4 0 9.6-7.8 17.4-17.4 17.4-9.6 0-17.4-7.8-17.4-17.4 0-9.6 7.8-17.4 17.4-17.4zM865.7 685.4c10.5 0 19.1 8.6 19.1 19.1 0 10.5-8.5 19.1-19.1 19.1-10.5 0-19.1-8.6-19.1-19.1 0-10.5 8.5-19.1 19.1-19.1zM158.3 685.4c10.5 0 19.1 8.6 19.1 19.1 0 10.5-8.5 19.1-19.1 19.1-10.5 0-19.1-8.6-19.1-19.1 0.1-10.5 8.6-19.1 19.1-19.1z" fill="#FFFFFF" p-id="7137">
	</path>
</svg>
