<!DOCTYPE svg>
<svg viewBox="0 0 1024 1024"  xmlns="http://www.w3.org/2000/svg">
    <path
        d="M563.2 401.92h-102.4c-33.28 0-58.88 25.6-58.88 58.88v102.4c0 33.28 25.6 58.88 58.88 58.88h102.4c33.28 0 58.88-25.6 58.88-58.88v-102.4c0-30.72-28.16-58.88-58.88-58.88z"
        fill="#FFBF00" ></path>
    <path
        d="M954.88 555.52c23.04 0 43.52-17.92 43.52-43.52s-17.92-43.52-43.52-43.52h-79.36V409.6h79.36c23.04 0 43.52-17.92 43.52-43.52 0-23.04-17.92-43.52-43.52-43.52h-81.92C865.28 230.4 793.6 158.72 701.44 148.48V69.12c0-23.04-17.92-43.52-43.52-43.52S614.4 43.52 614.4 69.12v79.36h-61.44V69.12c2.56-25.6-17.92-43.52-40.96-43.52s-43.52 17.92-43.52 43.52v79.36H409.6V69.12c0-25.6-20.48-43.52-43.52-43.52s-43.52 17.92-43.52 43.52v81.92C230.4 158.72 158.72 230.4 148.48 322.56H69.12c-23.04 0-43.52 17.92-43.52 43.52 0 23.04 17.92 43.52 43.52 43.52h79.36v61.44H69.12c-23.04 0-40.96 20.48-40.96 43.52 0 23.04 17.92 40.96 40.96 40.96h79.36V614.4H69.12c-25.6 0-43.52 20.48-43.52 43.52s17.92 43.52 43.52 43.52h81.92c7.68 92.16 81.92 166.4 174.08 174.08v81.92c0 23.04 17.92 43.52 43.52 43.52s43.52-17.92 43.52-43.52v-79.36h61.44v79.36c0 23.04 17.92 43.52 43.52 43.52 23.04 0 43.52-17.92 43.52-43.52v-79.36H614.4v79.36c0 23.04 17.92 43.52 43.52 43.52s43.52-17.92 43.52-43.52v-81.92c92.16-7.68 166.4-81.92 174.08-174.08h81.92c23.04 0 43.52-17.92 43.52-43.52s-20.48-43.52-46.08-43.52h-79.36v-61.44h79.36zM785.92 640c0 79.36-66.56 145.92-145.92 145.92H384c-79.36 0-145.92-66.56-145.92-145.92V384c0-79.36 66.56-145.92 145.92-145.92h256c79.36 0 145.92 66.56 145.92 145.92v256z"
        fill="#8D8E8E"></path>
</svg>